<mxfile host="app.diagrams.net" modified="2022-07-31T11:07:10.116Z" agent="5.0 (Windows)" etag="Q1CKdlmgtuLPyTuyyO_R" version="14.8.4" type="github">
  <diagram id="jFUbhppGDjpwHK5Gf23t" name="Page-1">
    <mxGraphModel dx="1422" dy="724" grid="1" gridSize="10" guides="1" tooltips="1" connect="1" arrows="1" fold="1" page="1" pageScale="1" pageWidth="827" pageHeight="1169" math="0" shadow="0">
      <root>
        <mxCell id="0" />
        <mxCell id="1" parent="0" />
        <mxCell id="mq8_BC7RwGtFNOBKyR-H-1" value="" style="rounded=0;whiteSpace=wrap;html=1;" vertex="1" parent="1">
          <mxGeometry x="350" y="340" width="120" height="60" as="geometry" />
        </mxCell>
      </root>
    </mxGraphModel>
  </diagram>
</mxfile>
